<?xml version="1.0" encoding="utf-8"?>
<!-- Generator: Adobe Illustrator 26.0.2, SVG Export Plug-In . SVG Version: 6.00 Build 0)  -->
<svg version="1.1" id="Слой_1" xmlns="http://www.w3.org/2000/svg" xmlns:xlink="http://www.w3.org/1999/xlink" x="0px" y="0px"
	 viewBox="0 0 13.1 24" style="enable-background:new 0 0 13.1 24;" xml:space="preserve">
<style type="text/css">
	.st0{fill:#82828C;}
</style>
<path class="st0" d="M3,5.8c0.8,0,1.5-0.7,1.5-1.5S3.8,2.8,3,2.8S1.5,3.4,1.5,4.3S2.2,5.8,3,5.8z"/>
<path class="st0" d="M3,20.8c0.8,0,1.5-0.7,1.5-1.5S3.8,17.8,3,17.8s-1.5,0.7-1.5,1.5S2.2,20.8,3,20.8z"/>
<path class="st0" d="M4.5,11.8c0,0.8-0.7,1.5-1.5,1.5s-1.5-0.7-1.5-1.5s0.7-1.5,1.5-1.5S4.5,10.9,4.5,11.8z"/>
<path class="st0" d="M10,13.3c0.8,0,1.5-0.7,1.5-1.5s-0.7-1.5-1.5-1.5s-1.5,0.7-1.5,1.5S9.2,13.3,10,13.3z"/>
<path class="st0" d="M11.5,4.3c0,0.8-0.7,1.5-1.5,1.5S8.5,5.1,8.5,4.3S9.2,2.8,10,2.8S11.5,3.4,11.5,4.3z"/>
<path class="st0" d="M10,20.8c0.8,0,1.5-0.7,1.5-1.5s-0.7-1.5-1.5-1.5s-1.5,0.7-1.5,1.5S9.2,20.8,10,20.8z"/>
</svg>
